<svg xmlns="http://www.w3.org/2000/svg" xmlns:xlink="http://www.w3.org/1999/xlink" viewBox="0,0,256,256" height="24" width="23"><g fill="#ffffff" fill-rule="nonzero" stroke="none" stroke-width="1" stroke-linecap="butt" stroke-linejoin="miter" stroke-miterlimit="10" stroke-dasharray="" stroke-dashoffset="0" font-family="none" font-weight="none" font-size="none" text-anchor="none" style="mix-blend-mode: normal"><g transform="scale(5.33333,5.33333)"><path d="M23.982,15c-4.98,0 -8.982,4.029 -8.982,9c0,4.971 4.002,9 8.982,9c4.98,0 9.018,-4.029 9.018,-9c0,-4.971 -4.037,-9 -9.018,-9zM24,29c-2.761,0 -5,-2.239 -5,-5c0,-2.761 2.239,-5 5,-5c2.761,0 5,2.239 5,5c0,2.761 -2.239,5 -5,5z"></path><path d="M24,5c-6.057,0 -16.868,0 -17.375,0c-0.897,0 -1.625,0.728 -1.625,1.625c0,0.897 0,14.219 0,17.375c0,10.493 8.507,19 19,19c10.493,0 19,-8.507 19,-19c0,-10.493 -8.507,-19 -19,-19zM24,37c-7.18,0 -13,-5.82 -13,-13c0,-7.18 5.82,-13 13,-13c7.18,0 13,5.82 13,13c0,7.18 -5.82,13 -13,13z"></path></g></g></svg>